HIERARCHY
ROOT Hips
{
	OFFSET	0.00	0.00	0.00
	CHANNELS 6 Xposition Yposition Zposition Zrotation Xrotation Yrotation
	JOINT LeftUpLeg
	{
		OFFSET	 0.126116	-0.014019	-0.065224
		CHANNELS 3 Zrotation Xrotation Yrotation
		JOINT LeftLeg
		{
			OFFSET	 0.000000	 0.000000	 0.569914
			CHANNELS 3 Zrotation Xrotation Yrotation
			JOINT LeftFoot
			{
				OFFSET	 0.000000	 0.000000	 0.544423
				CHANNELS 3 Zrotation Xrotation Yrotation
				JOINT LeftToeBase
				{
					OFFSET	 0.000000	 0.000000	 0.207117
					CHANNELS 3 Zrotation Xrotation Yrotation
					End Site
					{
						OFFSET	 0.000000	 0.000000	 0.207117
					}
				}
			}
		}
	}
	JOINT RightUpLeg
	{
		OFFSET	-0.124023	-0.008373	-0.065224
		CHANNELS 3 Zrotation Xrotation Yrotation
		JOINT RightLeg
		{
			OFFSET	 0.000000	 0.000000	 0.570047
			CHANNELS 3 Zrotation Xrotation Yrotation
			JOINT RightFoot
			{
				OFFSET	 0.000000	 0.000000	 0.544354
				CHANNELS 3 Zrotation Xrotation Yrotation
				JOINT RightToeBase
				{
					OFFSET	 0.000000	 0.000000	 0.207540
					CHANNELS 3 Zrotation Xrotation Yrotation
					End Site
					{
						OFFSET	 0.000000	 0.000000	 0.207540
					}
				}
			}
		}
	}
	JOINT Spine
	{
		OFFSET	 0.000184	-0.007763	 0.117403
		CHANNELS 3 Zrotation Xrotation Yrotation
		JOINT Spine1
		{
			OFFSET	 0.000000	 0.000000	 0.137269
			CHANNELS 3 Zrotation Xrotation Yrotation
			JOINT Spine2
			{
				OFFSET	 0.000000	 0.000000	 0.156879
				CHANNELS 3 Zrotation Xrotation Yrotation
				JOINT LeftShoulder
				{
					OFFSET	 0.080501	-0.002496	 0.160144
					CHANNELS 3 Zrotation Xrotation Yrotation
					JOINT LeftArm
					{
						OFFSET	 0.000000	 0.000000	 0.164363
						CHANNELS 3 Zrotation Xrotation Yrotation
						JOINT LeftForeArm
						{
							OFFSET	 0.000000	 0.000000	 0.364576
							CHANNELS 3 Zrotation Xrotation Yrotation
							JOINT LeftHand
							{
								OFFSET	 0.000000	 0.000000	 0.360812
								CHANNELS 3 Zrotation Xrotation Yrotation
								JOINT LeftHandIndex1
								{
									OFFSET	 0.000000	 0.000000	 0.086006
									CHANNELS 3 Zrotation Xrotation Yrotation
									JOINT LeftHandIndex2
									{
										OFFSET	 0.000000	 0.000000	 0.047236
										CHANNELS 3 Zrotation Xrotation Yrotation
										JOINT LeftHandIndex3
										{
											OFFSET	-0.004284	-0.000551	 0.038166
											CHANNELS 3 Zrotation Xrotation Yrotation
											End Site
											{
												OFFSET	-0.004284	-0.000551	 0.038166
											}
										}
									}
								}
							}
						}
					}
				}
				JOINT Neck
				{
					OFFSET	 0.000000	 0.000000	 0.176489
					CHANNELS 3 Zrotation Xrotation Yrotation
					JOINT Head
					{
						OFFSET	 0.000000	-0.001747	 0.077940
						CHANNELS 3 Zrotation Xrotation Yrotation
						End Site
						{
							OFFSET	 0.000000	-0.001747	 0.077940
						}
					}
				}
				JOINT RightShoulder
				{
					OFFSET	-0.080363	 0.000306	 0.159706
					CHANNELS 3 Zrotation Xrotation Yrotation
					JOINT RightArm
					{
						OFFSET	 0.000000	 0.000000	 0.164196
						CHANNELS 3 Zrotation Xrotation Yrotation
						JOINT RightForeArm
						{
							OFFSET	 0.000000	 0.000000	 0.365611
							CHANNELS 3 Zrotation Xrotation Yrotation
							JOINT RightHand
							{
								OFFSET	 0.000000	 0.000000	 0.360648
								CHANNELS 3 Zrotation Xrotation Yrotation
								JOINT RightHandIndex1
								{
									OFFSET	 0.000000	 0.000000	 0.069977
									CHANNELS 3 Zrotation Xrotation Yrotation
									JOINT RightHandIndex2
									{
										OFFSET	 0.000000	 0.000000	 0.052305
										CHANNELS 3 Zrotation Xrotation Yrotation
										JOINT RightHandIndex3
										{
											OFFSET	 0.009002	-0.000782	 0.042196
											CHANNELS 3 Zrotation Xrotation Yrotation
											End Site
											{
												OFFSET	 0.009002	-0.000782	 0.042196
											}
										}
									}
								}
							}
						}
					}
				}
			}
		}
	}
}
MOTION
Frames:    8
Frame Time: 0.03333334
-0.058310	-2.244035	 1.199582	 4.569543	-1.576191	-3.494356	 8.047788	-11.066790	-172.635900	 0.686853	-39.284890	 0.174903	 59.225340	 81.542630	-63.076950	-2.370533	 31.423930	-0.065603	-11.838460	-30.557450	-175.255800	 10.528650	-52.269470	 8.969806	 10.261910	 73.809900	-5.102294	 2.358334	 33.094410	 0.105415	-8.243593	 8.833263	 1.141240	 0.957338	 2.951561	 2.344079	-6.449051	-2.759726	-3.003711	-93.853380	 58.933090	 175.573400	 15.595070	 34.418510	-39.921630	-16.064490	 2.309135	-8.593949	-8.380531	-11.644090	-8.553157	-4.869262	 19.244330	-2.786477	-3.887383	 21.397830	 2.208702	-4.808259	 5.545542	 0.146964	-0.100845	-5.045360	 0.171424	-8.465830	 1.964853	 2.302092	 89.805620	 61.615540	-179.943900	-19.949260	 51.835390	 9.656256	 12.971150	 3.102096	 20.733800	 3.453868	 1.679998	 0.429355	 6.298934	 25.413960	-0.558410	 1.810514	 45.299630	-6.926163	 0.444518	 24.633690	 3.609913
-0.059769	-2.278239	 1.198588	 5.526648	-0.942412	-3.503744	 6.866255	-9.900528	-172.975000	 1.154115	-38.700180	 0.501088	 62.666470	 82.180560	-66.861630	-2.368861	 31.703570	-0.071936	-14.338130	-33.002780	-176.035900	 10.856810	-47.995720	 8.683947	 13.891270	 78.202460	-9.842760	 2.358975	 32.999960	 0.103221	-8.538359	 8.454563	 0.999919	 0.880562	 2.792167	 2.467648	-6.610496	-2.863635	-3.026717	-94.056250	 59.017980	 175.129700	 14.801640	 32.371820	-40.902940	-16.701720	 2.296659	-8.560948	-7.748418	-11.276530	-9.763570	-4.865871	 19.334760	-2.793143	-3.877567	 21.523380	 2.198735	-4.805854	 5.573850	 0.145309	-0.049522	-5.097262	 0.216161	-8.445982	 1.921491	 2.109235	 89.735230	 61.702680	 179.888100	-19.545410	 52.836300	 7.778574	 12.445300	 2.977251	 20.871850	 3.199205	 2.754940	 0.013650	 6.282404	 23.984750	-0.545543	 1.992423	 43.821520	-7.088182	 0.711799	 23.456360	 3.475325
-0.061171	-2.315687	 1.195988	 6.229781	-0.147208	-3.684144	 6.017622	-8.666044	-173.165700	 1.445430	-38.076710	 0.673942	 68.587440	 82.970910	-72.934100	-2.366951	 32.015530	-0.079028	-16.397290	-35.390390	-176.940200	 11.094460	-42.580290	 8.081956	 21.348040	 80.919160	-18.772340	 2.360030	 32.842720	 0.099570	-8.495680	 7.865921	 0.965546	 0.822382	 2.850592	 2.652050	-6.763036	-3.041931	-3.103451	-94.265610	 58.989850	 174.687300	 13.635860	 30.191320	-41.881600	-17.139120	 2.276761	-8.518204	-7.179051	-11.261650	-9.985765	-4.855230	 19.599190	-2.809127	-3.862048	 21.721240	 2.182962	-4.797661	 5.670373	 0.139653	-0.014980	-5.144719	 0.280099	-8.472136	 1.882255	 2.013398	 89.631380	 61.829380	 179.638300	-19.003550	 53.852530	 5.656465	 11.473750	 2.760681	 21.409610	 2.666048	 3.855755	-0.708583	 6.255898	 22.259110	-0.585062	 2.168280	 42.308110	-7.243465	 1.078449	 21.801400	 3.298157
-0.062609	-2.357254	 1.191781	 6.551332	 0.490447	-4.053555	 5.526535	-6.851107	-173.251300	 1.622665	-37.179950	 0.767535	 77.133080	 83.765610	-81.543430	-2.362756	 32.671030	-0.094059	-16.799110	-37.143490	-177.445500	 10.773840	-36.227310	 6.906476	 35.689860	 82.207310	-34.441910	 2.358202	 33.113120	 0.105853	-8.171210	 7.249893	 1.162946	 0.797167	 3.321220	 2.738693	-6.858942	-3.310549	-3.153959	-94.424310	 58.911060	 174.361400	 12.155180	 28.104990	-42.940480	-17.829570	 2.252460	-8.464833	-7.128825	-11.326270	-9.382145	-4.837174	 19.992530	-2.821450	-3.839079	 22.012060	 2.159624	-4.781898	 5.855663	 0.128758	 0.007023	-5.224854	 0.329472	-8.502139	 1.827781	 1.965372	 89.505830	 61.973690	 179.333500	-18.144270	 54.808010	 3.462982	 10.064210	 2.405991	 21.830860	 2.012211	 4.880916	-2.010419	 6.219399	 20.240590	-0.659879	 2.378523	 40.381180	-7.427153	 1.517629	 19.759130	 3.097821
-0.064831	-2.402164	 1.186357	 6.732456	 0.745165	-4.364991	 5.039428	-4.288889	-173.510000	 1.762305	-35.933810	 0.827328	 80.803850	 84.401010	-85.193080	-2.352283	 34.169200	-0.129055	-15.826070	-38.141620	-177.419500	 10.368800	-30.185590	 5.647588	 65.995230	 83.111460	-65.654590	 2.346660	 34.692990	 0.143148	-7.911158	 6.932913	 1.366354	 0.758602	 3.857872	 2.758602	-6.887055	-3.593277	-3.169775	-94.507530	 58.871470	 174.191100	 10.505350	 26.584780	-43.835330	-18.158330	 2.219088	-8.400345	-7.270328	-11.220180	-9.056617	-4.829329	 20.337290	-2.878556	-3.811248	 22.361510	 2.131360	-4.757788	 6.138113	 0.112038	 0.049650	-5.320763	 0.348586	-8.462394	 1.785860	 1.823568	 89.410900	 62.022800	 179.102700	-16.905140	 55.521860	 1.317286	 8.603277	 2.010992	 21.443560	 1.605697	 5.477465	-3.521142	 6.182375	 18.077140	-0.713263	 2.656373	 37.619820	-7.666240	 1.975572	 17.562050	 2.903434
-0.068574	-2.449843	 1.178342	 7.014500	 0.732309	-4.486551	 4.339630	-1.302101	-174.076700	 2.063969	-34.725540	 0.975003	 74.235530	 84.935010	-78.634220	-2.326151	 37.287060	-0.205157	-15.276200	-40.436700	-177.684700	 10.623580	-27.158990	 5.249906	 54.486990	 81.652630	-54.849640	 2.335968	 36.001310	 0.174880	-7.847392	 7.011480	 1.427346	 0.724580	 4.135950	 2.813250	-6.892263	-3.847061	-3.221720	-94.539440	 58.981240	 174.105000	 8.887404	 25.661960	-44.671100	-18.033600	 2.173684	-8.319716	-7.462240	-11.636850	-9.496763	-4.852303	 20.524610	-3.067377	-3.783430	 22.707620	 2.103108	-4.723181	 6.541759	 0.087918	 0.123166	-5.416630	 0.334754	-8.340372	 1.825444	 1.575876	 89.357760	 61.892590	 178.979400	-15.457600	 55.937730	-1.343164	 7.267221	 1.645730	 21.338530	 1.459070	 5.586567	-4.829875	 6.168749	 15.815260	-0.629589	 2.899776	 34.979510	-7.871720	 2.433304	 15.300040	 2.724720
-0.074235	-2.499403	 1.168493	 7.270584	 0.575321	-4.099464	 3.631544	 1.860354	-175.267200	 2.300114	-33.594930	 1.077813	 47.204350	 84.587090	-51.314250	-2.261587	 42.907580	-0.356523	-14.409890	-43.460210	-178.289000	 9.573414	-26.995530	 4.730332	 24.196990	 77.586320	-23.209620	 2.339206	 35.618930	 0.165525	-7.841280	 7.013965	 1.106496	 0.730030	 4.670946	 2.746861	-6.904844	-4.063630	-3.272710	-94.504680	 59.241050	 174.136100	 7.507651	 25.119280	-45.546530	-17.957050	 2.122420	-8.230766	-7.816433	-12.062520	-10.037410	-4.880958	 20.627230	-3.265325	-3.762358	 22.967620	 2.081721	-4.677342	 7.072741	 0.055786	 0.198452	-5.480242	 0.270358	-8.164540	 1.915990	 1.508850	 89.355490	 61.607410	 178.984400	-14.238870	 56.045370	-4.007137	 6.059272	 1.271195	 21.859630	 1.208801	 5.492201	-5.799335	 6.205556	 13.596170	-0.327027	 3.044344	 33.304680	-7.991768	 2.850349	 13.185120	 2.576105
-0.080708	-2.550629	 1.159705	 7.630741	 0.149961	-3.290647	 3.346805	 5.582841	-177.097200	 1.549581	-31.707630	 0.629116	 18.888790	 81.080090	-21.530720	-2.123827	 50.588190	-0.607142	-12.211770	-44.866130	-178.339700	 6.638652	-27.326180	 3.410399	 6.003664	 70.404660	-0.811082	 2.340087	 35.512520	 0.162927	-7.923412	 7.081720	 0.327822	 0.677106	 5.326995	 2.775373	-6.949085	-4.201780	-3.435430	-94.441470	 59.342200	 174.255000	 6.601067	 24.576290	-46.198470	-18.032890	 2.067312	-8.128648	-7.982575	-11.751630	-9.970450	-4.894971	 20.749870	-3.386983	-3.750474	 23.113550	 2.069648	-4.623592	 7.690148	 0.017829	 0.279550	-5.467297	 0.244766	-7.998549	 2.068912	 1.751928	 89.335750	 61.403730	 178.945200	-13.315560	 55.999210	-5.743809	 5.090247	 0.970641	 21.745880	 0.752563	 5.389092	-6.204054	 6.286676	 11.571950	 0.112050	 3.162711	 31.870550	-8.088828	 3.188612	 11.434640	 2.465934
